<?xml version="1.0" standalone="no"?>
<!DOCTYPE svg PUBLIC "-//W3C//DTD SVG 1.1//EN" "http://www.w3.org/Graphics/SVG/1.1/DTD/svg11.dtd" >
<svg xmlns="http://www.w3.org/2000/svg" xmlns:xlink="http://www.w3.org/1999/xlink" version="1.1">
<metadata></metadata>
<defs>
<font id="depixelbold" horiz-adv-x="1859" >
<font-face units-per-em="2048" ascent="1638" descent="-410" />
<missing-glyph horiz-adv-x="698" />
<glyph horiz-adv-x="0" />
<glyph horiz-adv-x="682" />
<glyph unicode=" "  horiz-adv-x="698" />
<glyph unicode="&#x09;" horiz-adv-x="698" />
<glyph unicode="&#xa0;" horiz-adv-x="698" />
<glyph unicode="!" horiz-adv-x="698" d="M465 696h-465v1397h465v-1397zM465 0h-465v465h465v-465z" />
<glyph unicode="&#x22;" horiz-adv-x="929" d="M233 1628l-233 -2v467h233v-465zM698 1628l-233 -2v467h233v-465z" />
<glyph unicode="#" horiz-adv-x="1394" d="M1161 1860h-465v-1860h-465v1395h-231v233h231v232h234v233h696v-233z" />
<glyph unicode="$" horiz-adv-x="2088" d="M1860 233h-232v-233h-465v-233h-465v233h-467v231h-231v234l236 -2l-5 -232h467v699h-465v231h-233v465h231v234h465v233h465v-233h465v-232h-465v-465h465v-233h234v-697zM1395 231v467h-234v-467h234zM696 1395l2 233h-233v-233h231zM1628 1395v233h232v-233h-232z" />
<glyph unicode="%" horiz-adv-x="2093" d="M1628 233v-233h-233v231h-234v234h234v-232h233zM698 1395h-233v233h-234v232h234v-232h233v-233zM1161 1395h234v-232h-232v-233h-233v231h231v234zM1860 1628h-232v-233h-233v231h231v234h234v-232zM231 465h234v-232h-232v-233h-233v231h231v234zM696 930h234v-232 h-232v-233h-233v231h231v234zM1626 698v-233h-231v233h231zM465 1395v-234h-232v234h232zM1860 231l-232 2v232h232v-234zM0 1626h231v-231h-231v231z" />
<glyph unicode="&#x26;" horiz-adv-x="2093" d="M1395 1395h-465v465h-465v-465h231v-232h-231v-930h465v930h698v-233h-233v-697h-234v-233h-930v233h-231v930h231v232h-231v465h231v233h930v-233h234v-465zM1860 1163h-232v465h232v-465z" />
<glyph unicode="'" horiz-adv-x="464" d="M233 1628l-233 -2v467h233v-465z" />
<glyph unicode="(" horiz-adv-x="698" d="M465 0h-232v231h-233v1395h231v-1393h234v-233zM465 1628h-234v232h234v-232z" />
<glyph unicode=")" horiz-adv-x="698" d="M465 233h-232v1393h-233v234h231v-232h234v-1395zM0 231h233v-231h-233v231z" />
<glyph unicode="*" horiz-adv-x="929" d="M698 930h-233v233h-232v232h232v-232h233v-233zM698 1395h-233v233h233v-233zM231 1628v-233h-231v233h231zM0 1161h233v-231h-233v231z" />
<glyph unicode="+" d="M1628 698h-698v-698h-232v698h-698v232h696v696h234v-696h698v-232z" />
<glyph unicode="," horiz-adv-x="698" d="M465 465v-696h-234v231h-231v465h465zM0 -231h231v-234h-231v234z" />
<glyph unicode="-" horiz-adv-x="1163" d="M930 465h-930v233h930v-233z" />
<glyph unicode="." horiz-adv-x="698" d="M465 0h-465v465h465v-465z" />
<glyph unicode="/" horiz-adv-x="1394" d="M231 696h234v-463h-232v-466h-233v464h231v465zM696 1626h234v-463h-232v-465h-233v463h231v465zM1163 1626h-233v465h233v-465z" />
<glyph unicode="0" d="M1395 233h-232v-233h-930v233h-233v1627h233v233h930v-233h232v-1627zM930 1860h-465v-697h231v232h234v465zM930 233v697h-234v-232h-231v-465h465z" />
<glyph unicode="1" horiz-adv-x="1394" d="M930 0h-465v1626h-465v234h465v231h465v-2091z" />
<glyph unicode="2" d="M1395 0h-1395v465h231v231h234v234h231v231h234v699h-699v231h930v-231h234v-699h-234v-231h-231v-234h-234v-231h-231v-234h930v-231zM0 1860h231v-234h-231v234z" />
<glyph unicode="3" horiz-adv-x="1628" d="M1395 231h-234v-231h-930v231h-231v234h231v-234h699v930h-699v234h234v231h231v234h-696v231h1395v-231h-234v-234h-231v-231h231v-234h234v-930z" />
<glyph unicode="4" d="M930 930v698h-234v232h234v233h465v-1163h231v-232h-231v-698h-465v698h-930v465h231v-233h699zM231 1395h234v-232h-234v232zM465 1628h231v-233h-231v233z" />
<glyph unicode="5" d="M1395 233h-234v-233h-930v233h-231v232h231v-232h699v930h-930v930h1395v-233h-930v-465h696v-232h234v-930z" />
<glyph unicode="6" d="M1395 233h-234v-233h-930v233h-231v1395h231v232h234v233h696v-233h-465v-232h-231v-233h696v-232h234v-930zM930 233v930h-465v-930h465z" />
<glyph unicode="7" d="M1395 1163h-234v-233h-231v-930h-465v930h231v233h234v697h-930v233h1395v-930z" />
<glyph unicode="8" d="M1395 233h-234v-233h-930v233h-231v930h231v232h-231v465h231v233h930v-233h234v-465h-234v-232h234v-930zM930 1395v465h-465v-465h465zM930 233v930h-465v-930h465z" />
<glyph unicode="9" d="M1395 465h-234v-232h-231v-233h-699v233h465v232h234v233h-699v232h-231v930h231v233h930v-233h234v-1395zM930 930v930h-465v-930h465z" />
<glyph unicode=":" horiz-adv-x="698" d="M465 1163l-465 -2v467h465v-465zM465 0h-465v465h465v-465z" />
<glyph unicode=";" horiz-adv-x="698" d="M465 465v-696h-234v231h-231v465h465zM465 1163l-465 -2v467h465v-465zM0 -231h231v-234h-231v234z" />
<glyph unicode="&#x3c;" horiz-adv-x="1163" d="M930 0h-232v231h-233v234h-232v233h-233v232h231v231h234v-696h231v-232h234v-233zM698 1163h-233v232h231v233h234v-233h-232v-232z" />
<glyph unicode="=" horiz-adv-x="1628" d="M1395 930h-1395v233h1395v-233zM1395 465h-1395v233h1395v-233z" />
<glyph unicode="&#x3e;" horiz-adv-x="1163" d="M930 698h-234v-233h-231v696h-234v234h-231v233h231v-233h234v-232h231v-233h234v-232zM231 465h234v-232h-234v232zM0 231h231v-231h-231v231z" />
<glyph unicode="?" horiz-adv-x="1628" d="M1161 1163h-231v-233h-234v-234h-465v467h234v232h231v465h-465v233h699v-233h231v-697zM696 0h-465v465h465v-465zM0 1860h231v-232h-231v232z" />
<glyph unicode="@" horiz-adv-x="2557" d="M0 1395h231v-930h234v-232h1161v-233h-1161v233h-234v232h-231v930zM2091 698h-231v697h-234v233h-1161v232h1161v-232h234v-233h231v-697zM1163 698v465h-465v232h697v-697h465v-233h-465v233h-232zM1163 698v-233h-465v233h-233v465h233v-465h465zM231 1628h234v-233 h-234v233z" />
<glyph unicode="A" d="M1395 0h-465v930h-465v-930h-465v1860h231v233h930v-233h234v-1860zM930 1163v697h-465v-697h465z" />
<glyph unicode="B" d="M1395 233h-234v-233h-1161v2093h1161v-233h234v-697h-234v-233h234v-697zM930 1163v697h-465v-697h465zM930 233v697h-465v-697h465z" />
<glyph unicode="C" horiz-adv-x="1628" d="M465 233h696v-233h-930v233h-231v1627h231v233h930v-233h234v-232h-234v232h-696v-1627zM1395 233h-234v232h234v-232z" />
<glyph unicode="D" d="M1395 233h-234v-233h-1161v2093h1161v-233h234v-1627zM930 233v1627h-465v-1627h465z" />
<glyph unicode="E" horiz-adv-x="1628" d="M1161 0h-1161v2093h1161v-233h-696v-697h465v-233h-465v-697h696v-233z" />
<glyph unicode="F" horiz-adv-x="1628" d="M1161 1860h-696v-697h465v-233h-465v-930h-465v2093h1161v-233z" />
<glyph unicode="G" d="M1395 233h-234v-233h-930v233h-231v1627h231v233h930v-233h234v-232h-234v232h-696v-1627h465v697h-234v233h699v-930z" />
<glyph unicode="H" d="M1395 0h-465v930h-465v-930h-465v2093h465v-930h465v930h465v-2093z" />
<glyph unicode="I" horiz-adv-x="1394" d="M930 0h-930v231h231v1629h-231v231h930v-231h-234v-1627h234v-233z" />
<glyph unicode="J" horiz-adv-x="1628" d="M1163 -233l-233 2v-234h-930v232h-233v466h464v-466h465v2326h467v-2326z" />
<glyph unicode="K" horiz-adv-x="2093" d="M1628 1860h-233v-232h-232v-233h-233v-232h-234v-233h234v-234h231v-231h234v-232h231v-233h-465v233h-231v232h-234v233h-231v-698h-465v2093h465v-698h231v233h234v232h231v233h467v-233z" />
<glyph unicode="L" horiz-adv-x="1394" d="M1163 0h-1163v2093h465v-1860h698v-233z" />
<glyph unicode="M" horiz-adv-x="2789" d="M2324 0h-464v1163h-232v-233h-233v-232h-232v-233h-233v233h-232v232h-233v233h-232v-1163h-233v2093h233v-233h232v-232h233v-233h232v-232h465v232h233v233h232v232h233v233h231v-2093z" />
<glyph unicode="N" horiz-adv-x="2093" d="M1628 0h-233v233h-232v232h-233v233h-232v232h-233v233h-232v-1163h-233v2093h233v-233h232v-232h233v-233h232v-232h233v-233h232v1163h233v-2093z" />
<glyph unicode="O" d="M1395 233h-232v-233h-930v233h-233v1627h233v233h930v-233h232v-1627zM930 233v1627h-465v-1627h465z" />
<glyph unicode="P" d="M1395 1163h-232v-233h-698v-930h-465v2093h1163v-233h232v-697zM930 1163v697h-465v-697h465z" />
<glyph unicode="Q" d="M1395 -465h-465v234h-234v231h-465v233h-231v1627h231v231h930v-231h234v-1627h-234v-464h234v-234zM930 233v1627h-465v-1627h465z" />
<glyph unicode="R" d="M1395 0h-465v930h-465v-930h-465v2093h1161v-233h234v-697h-234v-233h234v-930zM930 1163v697h-465v-697h465z" />
<glyph unicode="S" horiz-adv-x="1628" d="M1161 233h-231v-233h-699v233h-231v232h231v-232h465v465h-231v232h-234v233h-231v697h231v233h699v-233h231v-232h-231v232h-465v-465h231v-232h234v-233h231v-697z" />
<glyph unicode="T" horiz-adv-x="1394" d="M1161 1860h-465v-1860h-465v1860h-464v233h1394v-233z" />
<glyph unicode="U" d="M1395 233h-234v-233h-930v233h-231v1860h465v-1860h465v1860h465v-1860z" />
<glyph unicode="V" d="M1395 465h-234v-232h-231v-233h-465v233h-234v232h-231v1628h465v-1628h465v1628h465v-1628z" />
<glyph unicode="W" horiz-adv-x="2789" d="M1395 465h465v-232h-465v232h-465v1628h465v-1628zM465 465h465v-232h-465v232h-234v233h-231v1395h465v-1628zM2324 698h-233v-233h-231v1628h464v-1395z" />
<glyph unicode="X" d="M1395 0h-465v698h-465v-698h-465v698h231v232h234v233h-234v232h-231v698h465v-698h465v698h465v-698h-234v-232h-231v-233h231v-232h234v-698z" />
<glyph unicode="Y" d="M1395 1163h-234v-233h-231v-930h-465v930h-234v233h-231v930h465v-930h465v930h465v-930z" />
<glyph unicode="Z" d="M1395 0h-1395v698h231v232h234v233h231v232h234v465h-930v233h1395v-698h-234v-232h-231v-233h-234v-232h-231v-465h930v-233z" />
<glyph unicode="[" horiz-adv-x="698" d="M465 -465h-465v2556h465v-231h-234v-2093h234v-232z" />
<glyph unicode="\" horiz-adv-x="1394" d="M1163 -233h-233v464h-232v465h-233v465h-232v465h-233v465h231v-463h234v-465h231v-465h234v-465h233v-466z" />
<glyph unicode="]" horiz-adv-x="698" d="M465 -465h-465v232h233v2093h-233v231h465v-2556z" />
<glyph unicode="^" horiz-adv-x="1394" d="M231 1626h234v-231h-232v-234h-233v234h231v231zM1163 1161h-233v234h-232v231h232v-231h233v-234zM696 1860v-234h-231v234h231z" />
<glyph unicode="_" horiz-adv-x="929" d="M930 -465h-930v234h930v-234z" />
<glyph unicode="`" horiz-adv-x="0" d="M698 1628h-233v232h-232v233h232v-233h233v-232zM231 2324v-231h-231v231h231z" />
<glyph unicode="a" d="M930 1163v232h-699v233h930v-233h234v-1395h-1164v233h-231v697h231v233h-231v232h231v-232h699zM930 233v697h-465v-697h465z" />
<glyph unicode="b" d="M1395 233h-234v-233h-1161v2093h465v-465h696v-233h234v-1162zM930 233v1162h-465v-1162h465z" />
<glyph unicode="c" horiz-adv-x="1394" d="M465 233h465v-233h-699v233h-231v1162h231v233h699v-233h231v-232h-231v232h-465v-1162zM1161 233h-231v232h231v-232z" />
<glyph unicode="d" d="M1395 0h-1164v233h-231v1162h231v233h699v465h465v-2093zM930 233v1162h-465v-1162h465z" />
<glyph unicode="e" d="M465 233h696v-233h-930v233h-231v1162h231v233h930v-233h234v-697h-930v-465zM930 930v465h-465v-465h465zM1395 233h-234v232h234v-232z" />
<glyph unicode="f" horiz-adv-x="1394" d="M1161 1860h-465v-232h234v-233h-234v-1395h-465v1395h-231v233h231v232h234v233h696v-233z" />
<glyph unicode="g" d="M1395 -465h-234v-231h-930v231h-231v234h231v-234h699v465h-699v233h-231v1162h231v233h1164v-2093zM930 233v1162h-465v-1162h465z" />
<glyph unicode="h" d="M1395 0h-465v1395h-465v-1395h-465v2093h465v-465h696v-233h234v-1395z" />
<glyph unicode="i" horiz-adv-x="929" d="M465 1860h-465v233h465v-233zM465 0h-465v1628h465v-1628z" />
<glyph unicode="j" horiz-adv-x="1394" d="M930 1860h-465v233h465v-233zM930 -231h-234v-234h-696v234h-233v231h233v-231h465v1859h465v-1859z" />
<glyph unicode="k" horiz-adv-x="1628" d="M1395 0h-465v233h-234v232h-231v-465h-465v2093h465v-930h231v232h234v233h465v-233h-234v-232h-231v-233h-234v-232h234v-233h231v-232h234v-233z" />
<glyph unicode="l" horiz-adv-x="929" d="M465 0h-465v2093h465v-2093z" />
<glyph unicode="m" horiz-adv-x="2789" d="M2324 0h-464v1395h-465v-1395h-465v1395h-465v-1395h-465v1628h2091v-233h233v-1395z" />
<glyph unicode="n" d="M1395 0h-465v1395h-465v-1395h-465v1628h1161v-233h234v-1395z" />
<glyph unicode="o" d="M1395 233h-234v-233h-930v233h-231v1162h231v233h930v-233h234v-1162zM930 233v1162h-465v-1162h465z" />
<glyph unicode="p" d="M1395 233h-234v-233h-696v-465h-465v2093h1161v-233h234v-1162zM930 233v1162h-465v-1162h465z" />
<glyph unicode="q" d="M1395 -465h-465v465h-699v233h-231v1162h231v233h1164v-2093zM930 233v1162h-465v-1162h465z" />
<glyph unicode="r" horiz-adv-x="1394" d="M465 1395h231v-232h-231v-1163h-465v1628h465v-233zM1161 1395h-465v231h465v-231z" />
<glyph unicode="s" horiz-adv-x="1628" d="M1161 233h-231v-233h-699v233h-231v232h231v-232h465v232h-231v233h-234v232h-231v465h231v233h699v-233h231v-232h-231v232h-465v-232h231v-233h234v-232h231v-465z" />
<glyph unicode="t" horiz-adv-x="1394" d="M930 0h-465v233h-234v1162h-231v233h231v465h465v-465h234v-233h-234v-1162h234v-233z" />
<glyph unicode="u" d="M1395 0h-1164v233h-231v1395h465v-1395h465v1395h465v-1628z" />
<glyph unicode="v" d="M1395 465h-234v-232h-231v-233h-465v233h-234v232h-231v1163h465v-1163h465v1163h465v-1163z" />
<glyph unicode="w" horiz-adv-x="2789" d="M1395 233h465v-233h-465v233h-465v1395h465v-1395zM465 233h465v-233h-465v233h-234v232h-231v1163h465v-1395zM2324 465h-233v-232h-231v1395h464v-1163z" />
<glyph unicode="x" d="M1395 0h-465v465h-465v-465h-465v465h231v233h234v230h-234v233h-231v465h465v-465h465v465h465v-465h-234v-231h-231v-232h231v-233h234v-465z" />
<glyph unicode="y" d="M1395 -465h-234v-231h-930v231h-231v234h231v-234h699v465h-699v233h-231v1395h465v-1395h465v1395h465v-2093z" />
<glyph unicode="z" d="M1395 0h-1395v465h231v233h234v232h231v233h234v232h-930v233h1395v-465h-234v-233h-231v-232h-234v-233h-231v-232h930v-233z" />
<glyph unicode="{" horiz-adv-x="929" d="M231 1395v-930h-231v930h231zM698 -233h-233v233h-232v465h232v-465h233v-233zM465 1395h-234v465h234v-465zM698 1860h-233v231h233v-231z" />
<glyph unicode="|" horiz-adv-x="464" d="M233 -465h-233v2558h233v-2558z" />
<glyph unicode="}" horiz-adv-x="929" d="M698 465h-233v930h-232v465h232v-465h233v-930zM231 465h234v-465h-232v-233h-233v233h231v465zM231 2091v-231h-231v231h231z" />
<glyph unicode="~" horiz-adv-x="1394" d="M696 1860v-234h-463v-231h-233v231h231v234h465zM1395 1626h-232v-231h-465v231h463v234h234v-234z" />
<glyph unicode="&#xa1;" horiz-adv-x="698" d="M465 1628h-465v465h465v-465zM465 0h-465v1395h465v-1395z" />
<glyph unicode="&#xa2;" horiz-adv-x="2093" d="M1860 1163h-234v232h234v-232zM1860 231h-234v234h234v-234z" />
<glyph unicode="&#xa4;" d="M696 233h699v-233h-930v233h-234v465h-231v232h231v233h-231v232h231v465h234v233h930v-233h231v-232h-231v232h-699v-465h699v-232h-699v-233h465v-232h-465v-465zM1626 233h-231v232h231v-232z" />
<glyph unicode="&#xa5;" horiz-adv-x="561" />
<glyph unicode="&#xa7;" horiz-adv-x="901" />
<glyph unicode="&#xa8;" horiz-adv-x="0" d="M1395 1860h-465v231h465v-231zM465 1860h-465v231h465v-231z" />
<glyph unicode="&#xa9;" horiz-adv-x="1394" d="M1163 930h-465v231h-233v465h231v-463h467v-233zM0 1860h231v-930h-231v930zM696 2093v-233h-465v233h465zM698 930v-234h-465v234h465zM1163 1628h-465v232h465v-232zM696 1628v-2h2v2h-2z" />
<glyph unicode="&#xab;" horiz-adv-x="2324" d="M2091 0h-465v231h-231v234h-234l2 233h-233v232h231v231h234v234h231v233h465v-233h-231v-232h-234v-233h-231v-232h231v-233h234v-232h231v-233zM1161 0h-465v231h-231v234h-234l2 233h-233v232h231v231h234v234h231v233h465v-233h-231v-232h-234v-233h-231v-232h231 v-233h234v-232h231v-233z" />
<glyph unicode="&#xad;" horiz-adv-x="1163" d="M930 465h-930v233h930v-233z" />
<glyph unicode="&#xae;" horiz-adv-x="1394" d="M930 1628v-233h233v-465h-233v465h-232v-234h-233v699h-234v233h699v-233h233v-232h-233v232h-234v-232h234zM0 1860h231v-930h-231v930zM930 930v-234h-697v234h697z" />
<glyph unicode="&#xb0;" horiz-adv-x="929" d="M698 1626v-231h-233v231h-234v234h234v-234h233zM930 1626h-232v234h232v-234zM696 2091v-231h-231v231h231z" />
<glyph unicode="&#xb4;" horiz-adv-x="0" d="M231 2093h234v-233h-232v-232h-233v232h231v233zM698 2093h-233v231h233v-231z" />
<glyph unicode="&#xb5;" horiz-adv-x="4648" d="M4184 0h-465v1395h-465v-1395h-465v1395h-465v-1395h-464v1395h-465v-1395h-465v1395h-465v-1395h-465v1628h3951v-233h233v-1395z" />
<glyph unicode="&#xb6;" horiz-adv-x="1282" d="M1020 1272h-62v-1591h-90v1591h-301v-1591h-90v954l-90 20l-102 54l-66 77l-37 95l-10 106l21 125l30 76l58 63l65 52l78 32l172 23h424v-86z" />
<glyph unicode="&#xb7;" horiz-adv-x="698" d="M465 698l-465 -2v467h465v-465z" />
<glyph unicode="&#xb8;" horiz-adv-x="0" d="M231 -231h234v-234h-234v234zM698 -231h-233v231h233v-231z" />
<glyph unicode="&#xbb;" horiz-adv-x="2324" d="M2091 698h-231v-233h-232v-232h-233v-233h-465v231h231v234h234v231h233v234h-233v231h-232v234h-233v233h465v-233h231v-232h234v-233h231v-232zM1161 698h-231v-233h-232v-232h-233v-233h-465v231h231v234h234v231h233v234h-233v231h-232v234h-233v233h465v-233h231 v-232h234v-233h231v-232z" />
<glyph unicode="&#xbf;" horiz-adv-x="1628" d="M696 1628h-465v465h465v-465zM1161 233h-231v-233h-699v233h-231v232h231v-232h465v465h-231v232h-234v465h465v-232h234v-233h231v-697z" />
<glyph unicode="&#xc0;" d="M1395 0h-465v930h-465v-930h-465v1860h231v233h930v-233h234v-1860zM930 1163v697h-465v-697h465zM1161 2093h-233v231h-232v234h232v-234h233v-231zM694 2789v-231h-231v231h231z" />
<glyph unicode="&#xc1;" d="M1395 0h-465v930h-465v-930h-465v1860h231v233h930v-233h234v-1860zM930 1163v697h-465v-697h465zM463 2558h233v-234h-231v-231h-234v231h232v234zM930 2558h-234v231h234v-231z" />
<glyph unicode="&#xc2;" d="M1395 0h-465v930h-465v-930h-465v1860h231v233h930v-233h234v-1860zM930 1163v697h-465v-697h465zM1161 2093h-233v234h-465v231h465v-231h233v-234zM229 2324h234v-231h-234v231z" />
<glyph unicode="&#xc3;" d="M1395 0h-465v930h-465v-930h-465v1860h231v233h930v-233h234v-1860zM930 1163v697h-465v-697h465zM1395 2327h-232v-234h-465v234h463v231h234v-231zM696 2558v-231h-463v-234h-233v234h231v231h465z" />
<glyph unicode="&#xc4;" d="M1395 0h-465v930h-465v-930h-465v1860h231v233h930v-233h234v-1860zM930 1163v697h-465v-697h465zM1395 2324h-465v232h465v-232zM465 2324h-465v232h465v-232z" />
<glyph unicode="&#xc5;" d="M1395 0h-465v930h-465v-930h-465v1860h231v233h930v-233h234v-1860zM930 1163v697h-465v-697h465zM698 2324v-231h-233v231h-234v234h234v-234h233zM930 2324h-232v234h232v-234zM696 2789v-231h-231v231h231z" />
<glyph unicode="&#xc6;" horiz-adv-x="2557" d="M2091 0h-1161v930h-465v-930h-465v1860h231v233h1860v-233h-696v-697h465v-233h-465v-697h696v-233zM930 1163v697h-465v-697h465z" />
<glyph unicode="&#xc7;" horiz-adv-x="1628" d="M465 233h696v-233h-930v233h-231v1627h231v233h930v-233h234v-232h-234v232h-696v-1627zM1395 233h-234v232h234v-232zM463 -231h233v-234h-233v234zM930 -231h-234v231h234v-231z" />
<glyph unicode="&#xc8;" horiz-adv-x="1628" d="M1161 0h-1161v2093h1161v-233h-696v-697h465v-233h-465v-697h696v-233zM930 2093h-234v231h-231v234h231v-234h234v-231zM463 2789v-231h-232v231h232z" />
<glyph unicode="&#xc9;" horiz-adv-x="1628" d="M1161 0h-1161v2093h1161v-233h-696v-697h465v-233h-465v-697h696v-233zM465 2558h233v-234h-231v-231h-234v231h232v234zM932 2558h-234v231h234v-231z" />
<glyph unicode="&#xca;" horiz-adv-x="1628" d="M1161 0h-1161v2093h1161v-233h-696v-697h465v-233h-465v-697h696v-233zM1155 2324h-233v234h-465v231h465v-231h233v-234zM223 2556h234v-232h-234v232z" />
<glyph unicode="&#xcb;" horiz-adv-x="1628" d="M1161 0h-1161v2093h1161v-233h-696v-697h465v-233h-465v-697h696v-233zM1161 2324h-465v232h465v-232zM465 2324h-465v232h465v-232z" />
<glyph unicode="&#xcc;" horiz-adv-x="1394" d="M930 0h-930v231h231v1629h-231v231h930v-231h-234v-1627h234v-233zM930 2093h-234v231h-231v234h231v-234h234v-231zM463 2789v-231h-232v231h232z" />
<glyph unicode="&#xcd;" horiz-adv-x="1394" d="M930 0h-930v231h231v1629h-231v231h930v-231h-234v-1627h234v-233zM459 2558h233v-234h-231v-231h-234v231h232v234zM926 2558h-234v231h234v-231z" />
<glyph unicode="&#xce;" horiz-adv-x="1394" d="M930 0h-930v231h231v1629h-231v231h930v-231h-234v-1627h234v-233zM932 2324h-234v234h-465v231h465v-231h234v-234zM0 2556h233v-232h-233v232z" />
<glyph unicode="&#xcf;" horiz-adv-x="1394" d="M930 0h-930v231h231v1629h-231v231h930v-231h-234v-1627h234v-233zM1157 2324h-465v232h465v-232zM465 2324h-465v232h465v-232z" />
<glyph unicode="&#xd0;" d="M1395 233h-234v-233h-1161v930h-233v233h233v930h1161v-233h234v-1627zM696 930h-231v-697h465v1627h-465v-697h231v-233z" />
<glyph unicode="&#xd1;" horiz-adv-x="2093" d="M1628 0h-233v233h-232v232h-233v233h-232v232h-233v233h-232v-1163h-233v2093h233v-233h232v-232h233v-233h232v-232h233v-233h232v1163h233v-2093zM1624 2324h-231v-233h-465v233h463v232h233v-232zM926 2556v-232h-463v-233h-234v233h232v232h465z" />
<glyph unicode="&#xd2;" d="M1395 233h-232v-233h-930v233h-233v1627h233v233h930v-233h232v-1627zM930 233v1627h-465v-1627h465zM1163 2093h-233v231h-232v234h232v-234h233v-231zM696 2789v-231h-231v231h231z" />
<glyph unicode="&#xd3;" d="M1395 233h-232v-233h-930v233h-233v1627h233v233h930v-233h232v-1627zM930 233v1627h-465v-1627h465zM465 2558h233v-234h-231v-231h-234v231h232v234zM932 2558h-234v231h234v-231z" />
<glyph unicode="&#xd4;" d="M1395 233h-232v-233h-930v233h-233v1627h233v233h930v-233h232v-1627zM930 233v1627h-465v-1627h465zM1163 2324h-233v234h-465v231h465v-231h233v-234zM231 2556h234v-232h-234v232z" />
<glyph unicode="&#xd5;" d="M1395 233h-232v-233h-930v233h-233v1627h233v233h930v-233h232v-1627zM930 233v1627h-465v-1627h465zM1395 2324h-232v-233h-465v233h463v232h234v-232zM696 2556v-232h-463v-233h-233v233h231v232h465z" />
<glyph unicode="&#xd6;" d="M1395 233h-232v-233h-930v233h-233v1627h233v233h930v-233h232v-1627zM930 233v1627h-465v-1627h465zM1395 2324h-465v232h465v-232zM465 2324h-465v232h465v-232z" />
<glyph unicode="&#xd8;" d="M1393 2093v234h233v-234h-231v-1860h-232v-233h-930v233h-233v1627h233v233h1160zM930 1397v463h-465v-928h231v-463h-231v-236h465v701h-234v463h234zM0 -233v233h233v-233h-233z" />
<glyph unicode="&#xd9;" d="M1395 233h-234v-233h-930v233h-231v1860h465v-1860h465v1860h465v-1860zM1163 2093h-233v231h-232v234h232v-234h233v-231zM696 2789v-231h-231v231h231z" />
<glyph unicode="&#xda;" d="M1395 233h-234v-233h-930v233h-231v1860h465v-1860h465v1860h465v-1860zM696 2558h234v-234h-232v-231h-233v231h231v234zM1163 2558h-233v231h233v-231z" />
<glyph unicode="&#xdb;" d="M1395 233h-234v-233h-930v233h-231v1860h465v-1860h465v1860h465v-1860zM1165 2324h-233v234h-465v231h465v-231h233v-234zM233 2556h234v-232h-234v232z" />
<glyph unicode="&#xdc;" d="M1395 233h-234v-233h-930v233h-231v1860h465v-1860h465v1860h465v-1860zM1395 2324h-465v232h465v-232zM465 2324h-465v232h465v-232z" />
<glyph unicode="&#xdd;" d="M1395 1163h-234v-233h-231v-930h-465v930h-234v233h-231v930h465v-930h465v930h465v-930zM696 2558h234v-234h-232v-231h-233v231h231v234zM1163 2558h-233v231h233v-231z" />
<glyph unicode="&#xde;" d="M465 0h-465v2093h465v-463h698v-233h232v-697h-232v-233h-698v-467zM930 700v697h-465v-697h465z" />
<glyph unicode="&#xdf;" horiz-adv-x="2093" d="M1395 1395h-234v465h-696v-1860h-465v1860h231v233h930v-233h234v-465zM1626 233h-231v-233h-699v233h465v697h-231v233h-234v232h465v-232h234v-233h231v-697z" />
<glyph unicode="&#xe0;" d="M930 1163v232h-699v233h930v-233h234v-1395h-1164v233h-231v697h231v233h-231v232h231v-232h699zM930 233v697h-465v-697h465zM1159 1628h-233v232h-232v233h232v-233h233v-232zM692 2324v-231h-231v231h231z" />
<glyph unicode="&#xe1;" d="M930 1163v232h-699v233h930v-233h234v-1395h-1164v233h-231v697h231v233h-231v232h231v-232h699zM930 233v697h-465v-697h465zM463 2093h233v-233h-231v-232h-234v232h232v233zM930 2093h-234v231h234v-231z" />
<glyph unicode="&#xe2;" d="M930 1163v232h-699v233h930v-233h234v-1395h-1164v233h-231v697h231v233h-231v232h231v-232h699zM930 233v697h-465v-697h465zM1159 1860h-233v233h-465v231h465v-231h233v-233zM227 2091h234v-231h-234v231z" />
<glyph unicode="&#xe3;" d="M930 1163v232h-699v233h930v-233h234v-1395h-1164v233h-231v697h231v233h-231v232h231v-232h699zM930 233v697h-465v-697h465zM1395 1862h-232v-234h-465v234h463v231h234v-231zM696 2093v-231h-463v-234h-233v234h231v231h465z" />
<glyph unicode="&#xe4;" d="M930 1163v232h-699v233h930v-233h234v-1395h-1164v233h-231v697h231v233h-231v232h231v-232h699zM930 233v697h-465v-697h465zM1395 1860h-465v231h465v-231zM465 1860h-465v231h465v-231z" />
<glyph unicode="&#xe5;" d="M930 1163v232h-699v233h930v-233h234v-1395h-1164v233h-231v697h231v233h-231v232h231v-232h699zM930 233v697h-465v-697h465zM930 1862v-232h-234v232h-233v233h233v-233h234zM1161 1862h-231v233h231v-233zM928 2327v-232h-232v232h232z" />
<glyph unicode="&#xe6;" horiz-adv-x="2791" d="M930 1163v232h-699v233h1860v-233h233v-697h-929v-465h696v-233h-1860v233h-231v697h231v233h-231v232h231v-232h699zM930 233v697h-465v-697h465zM1860 930v465h-465v-465h465zM2324 233h-233v232h233v-232z" />
<glyph unicode="&#xe7;" horiz-adv-x="1394" d="M465 233h465v-233h-699v233h-231v1162h231v233h699v-233h231v-232h-231v232h-465v-1162zM1161 233h-231v232h231v-232zM463 -231h233v-234h-233v234zM930 -231h-234v231h234v-231z" />
<glyph unicode="&#xe8;" d="M465 233h696v-233h-930v233h-231v1162h231v233h930v-233h234v-697h-930v-465zM930 930v465h-465v-465h465zM1395 233h-234v232h234v-232zM1161 1628h-233v232h-232v233h232v-233h233v-232zM694 2324v-231h-231v231h231z" />
<glyph unicode="&#xe9;" d="M465 233h696v-233h-930v233h-231v1162h231v233h930v-233h234v-697h-930v-465zM930 930v465h-465v-465h465zM1395 233h-234v232h234v-232zM694 2093h234v-233h-232v-232h-233v232h231v233zM1161 2093h-233v231h233v-231z" />
<glyph unicode="&#xea;" d="M465 233h696v-233h-930v233h-231v1162h231v233h930v-233h234v-697h-930v-465zM930 930v465h-465v-465h465zM1395 233h-234v232h234v-232zM1163 1860h-233v233h-465v231h465v-231h233v-233zM231 2091h234v-231h-234v231z" />
<glyph unicode="&#xeb;" d="M465 233h696v-233h-930v233h-231v1162h231v233h930v-233h234v-697h-930v-465zM930 930v465h-465v-465h465zM1395 233h-234v232h234v-232zM1395 1860h-465v231h465v-231zM465 1860h-465v231h465v-231z" />
<glyph unicode="&#xec;" horiz-adv-x="929" d="M465 0h-465v1628h465v-1628zM698 1628h-233v232h-232v233h232v-233h233v-232zM231 2324v-231h-231v231h231z" />
<glyph unicode="&#xed;" horiz-adv-x="929" d="M465 0h-465v1628h465v-1628zM-2 2093h233v-233h-231v-232h-233v232h231v233zM465 2093h-234v231h234v-231z" />
<glyph unicode="&#xee;" horiz-adv-x="929" d="M465 0h-465v1628h465v-1628zM698 1860h-233v233h-465v231h465v-231h233v-233zM-233 2091h233v-231h-233v231z" />
<glyph unicode="&#xef;" horiz-adv-x="929" d="M465 0h-465v1628h465v-1628zM930 1860h-465v231h465v-231zM0 1860h-465v231h465v-231z" />
<glyph unicode="&#xf0;" d="M1161 1628h234v-1395h-234v-233h-930v233h-231v930h231v232h699v233h-234v232h-465v233h699v-233h231v-232zM930 233v930h-465v-930h465z" />
<glyph unicode="&#xf1;" d="M1395 0h-465v1395h-465v-1395h-465v1628h1161v-233h234v-1395zM1395 1862h-232v-234h-465v234h463v231h234v-231zM696 2093v-231h-463v-234h-233v234h231v231h465z" />
<glyph unicode="&#xf2;" d="M1395 233h-234v-233h-930v233h-231v1162h231v233h930v-233h234v-1162zM930 233v1162h-465v-1162h465zM1161 1628h-233v232h-232v233h232v-233h233v-232zM694 2324v-231h-231v231h231z" />
<glyph unicode="&#xf3;" d="M1395 233h-234v-233h-930v233h-231v1162h231v233h930v-233h234v-1162zM930 233v1162h-465v-1162h465zM463 2093h233v-233h-231v-232h-234v232h232v233zM930 2093h-234v231h234v-231z" />
<glyph unicode="&#xf4;" d="M1395 233h-234v-233h-930v233h-231v1162h231v233h930v-233h234v-1162zM930 233v1162h-465v-1162h465zM1159 1860h-233v233h-465v231h465v-231h233v-233zM227 2091h234v-231h-234v231z" />
<glyph unicode="&#xf5;" d="M1395 233h-234v-233h-930v233h-231v1162h231v233h930v-233h234v-1162zM930 233v1162h-465v-1162h465zM1395 1862h-232v-234h-465v234h463v231h234v-231zM696 2093v-231h-463v-234h-233v234h231v231h465z" />
<glyph unicode="&#xf6;" d="M1395 233h-234v-233h-930v233h-231v1162h231v233h930v-233h234v-1162zM930 233v1162h-465v-1162h465zM1395 1860h-465v231h465v-231zM465 1860h-465v231h465v-231z" />
<glyph unicode="&#xf8;" d="M1395 233h-234v-233h-696v-233h-234v466h-231v1162h231v233h930v-233h234v-1162zM930 233v463h-234v465h232v234h-463v-699h231v-463h234zM1395 1628h-234v225h234v-225z" />
<glyph unicode="&#xf9;" d="M1395 0h-1164v233h-231v1395h465v-1395h465v1395h465v-1628zM1163 1628h-233v232h-232v233h232v-233h233v-232zM696 2324v-231h-231v231h231z" />
<glyph unicode="&#xfa;" d="M1395 0h-1164v233h-231v1395h465v-1395h465v1395h465v-1628zM694 2093h234v-233h-232v-232h-233v232h231v233zM1161 2093h-233v231h233v-231z" />
<glyph unicode="&#xfb;" d="M1395 0h-1164v233h-231v1395h465v-1395h465v1395h465v-1628zM1165 1860h-233v233h-465v231h465v-231h233v-233zM233 2091h234v-231h-234v231z" />
<glyph unicode="&#xfc;" d="M1395 0h-1164v233h-231v1395h465v-1395h465v1395h465v-1628zM1395 1862h-465v231h465v-231zM465 1862h-465v231h465v-231z" />
<glyph unicode="&#xfd;" d="M1395 -465h-234v-231h-930v231h-231v234h231v-234h699v465h-699v233h-231v1395h465v-1395h465v1395h465v-2093zM696 2093h234v-233h-232v-232h-233v232h231v233zM1163 2093h-233v231h233v-231z" />
<glyph unicode="&#xfe;" d="M1395 233h-234v-233h-696v-465h-465v2558h465v-465h696v-233h234v-1162zM930 233v1162h-465v-1162h465z" />
<glyph unicode="&#xff;" d="M1395 -465h-234v-231h-930v231h-231v234h231v-234h699v465h-699v233h-231v1395h465v-1395h465v1395h465v-2093zM1395 1860h-465v231h465v-231zM465 1860h-465v231h465v-231z" />
<glyph unicode="&#x178;" d="M1395 1163h-234v-233h-231v-930h-465v930h-234v233h-231v930h465v-930h465v930h465v-930zM1395 2324h-465v232h465v-232zM465 2324h-465v232h465v-232z" />
<glyph unicode="&#x2c6;" horiz-adv-x="0" d="M1163 1860h-233v233h-465v231h465v-231h233v-233zM231 2091h234v-231h-234v231z" />
<glyph unicode="&#x2dc;" horiz-adv-x="0" d="M1395 1860h-232v-234h-465v234h463v231h234v-231zM696 2091v-231h-463v-234h-233v234h231v231h465z" />
<glyph unicode="&#x2000;" horiz-adv-x="1394" />
<glyph unicode="&#x2001;" horiz-adv-x="2789" />
<glyph unicode="&#x2002;" horiz-adv-x="1394" />
<glyph unicode="&#x2003;" horiz-adv-x="2789" />
<glyph unicode="&#x2004;" horiz-adv-x="929" />
<glyph unicode="&#x2005;" horiz-adv-x="697" />
<glyph unicode="&#x2006;" horiz-adv-x="464" />
<glyph unicode="&#x2007;" horiz-adv-x="464" />
<glyph unicode="&#x2008;" horiz-adv-x="348" />
<glyph unicode="&#x2009;" horiz-adv-x="557" />
<glyph unicode="&#x200a;" horiz-adv-x="154" />
<glyph unicode="&#x2010;" horiz-adv-x="1163" d="M930 465h-930v233h930v-233z" />
<glyph unicode="&#x2011;" horiz-adv-x="1163" d="M930 465h-930v233h930v-233z" />
<glyph unicode="&#x2012;" horiz-adv-x="1163" d="M930 465h-930v233h930v-233z" />
<glyph unicode="&#x2013;" horiz-adv-x="1163" d="M930 465h-930v233h930v-233z" />
<glyph unicode="&#x2014;" horiz-adv-x="1628" d="M1395 465h-1395v233h1395v-233z" />
<glyph unicode="&#x2018;" horiz-adv-x="698" d="M0 1161v699h233v-234h232v-465h-465zM465 1860h-232v231h232v-231z" />
<glyph unicode="&#x2019;" horiz-adv-x="698" d="M465 2091v-696h-234v231h-231v465h465zM0 1395h231v-234h-231v234z" />
<glyph unicode="&#x201a;" horiz-adv-x="698" d="M465 465v-696h-234v231h-231v465h465zM0 -231h231v-234h-231v234z" />
<glyph unicode="&#x201c;" horiz-adv-x="1394" d="M465 1161h-465v699h233v-234h232v-465zM1163 1161h-465v699h232v-234h233v-465zM930 1860v231h233v-231h-233zM233 1860v231h232v-231h-232z" />
<glyph unicode="&#x201d;" horiz-adv-x="1394" d="M0 2091h465v-696h-234v231h-231v465zM698 2091h465v-696h-233v231h-232v465zM930 1395v-234h-232v234h232zM231 1395v-234h-231v234h231z" />
<glyph unicode="&#x201e;" horiz-adv-x="1394" d="M0 465h465v-698h-234v233h-231v465zM698 465h465v-698h-231v233h-234v465zM932 -233v-232h-234v232h234zM231 -233v-232h-231v232h231z" />
<glyph unicode="&#x2022;" horiz-adv-x="698" d="M465 698l-465 -2v467h465v-465z" />
<glyph unicode="&#x2026;" horiz-adv-x="1923" d="M1614 100q0 -46 -33 -77t-80 -31q-46 0 -78 31t-32 77t32 77.5t78 31.5q47 0 80 -31.5t33 -77.5zM973 100q0 -45 -32.5 -76.5t-78.5 -31.5t-78 31t-32 77t32 77.5t78 31.5t78.5 -31.5t32.5 -77.5zM336 100q0 -46 -33 -77t-80 -31q-46 0 -78 31t-32 77t32 77.5t78 31.5 q47 0 80 -31.5t33 -77.5z" />
<glyph unicode="&#x202f;" horiz-adv-x="557" />
<glyph unicode="&#x2039;" horiz-adv-x="929" d="M698 0h-233v231h-232v234h232v-232h233v-233zM231 930v-465h-231v465h231zM465 930h-234v231h234v-231zM698 1163h-233v232h233v-232z" />
<glyph unicode="&#x203a;" horiz-adv-x="929" d="M698 465h-233v465h-232v231h-233v234h231v-232h234v-233h233v-465zM231 465h234v-232h-232v-233h-233v231h231v234z" />
<glyph unicode="&#x205f;" horiz-adv-x="697" />
<glyph unicode="&#x2122;" horiz-adv-x="2091" d="M1161 1395h234v-232h-234v232h-231v-234h-232v699h-233v-699h-232v699h-233v233h930v-233h231v-465zM1860 1163h-234v232h-231v465h231v233h234v-930z" />
<glyph unicode="&#x25fc;" horiz-adv-x="1628" d="M0 1628h1628v-1628h-1628v1628z" />
<glyph unicode="&#xfb01;" horiz-adv-x="2093" d="M1626 0h-465v1628h465v-1628zM1626 1860h-930v-232h234v-233h-234v-1395h-465v1395h-231v233h231v232h234v233h1161v-233z" />
<glyph unicode="&#xfb02;" horiz-adv-x="2093" d="M1626 0h-465v1860h-465v-232h234v-233h-234v-1395h-465v1395h-231v233h231v232h234v233h1161v-2093z" />
</font>
</defs>
</svg>
